<?xml version="1.0" encoding="utf-8"?>
<!-- Generator: Adobe Illustrator 18.0.0, SVG Export Plug-In . SVG Version: 6.00 Build 0)  -->
<!DOCTYPE svg PUBLIC "-//W3C//DTD SVG 1.1//EN" "http://www.w3.org/Graphics/SVG/1.1/DTD/svg11.dtd">
<svg version="1.1"
	 id="Layer_1" xmlns:cc="http://creativecommons.org/ns#" xmlns:rdf="http://www.w3.org/1999/02/22-rdf-syntax-ns#" xmlns:dc="http://purl.org/dc/elements/1.1/"
	 xmlns="http://www.w3.org/2000/svg" xmlns:xlink="http://www.w3.org/1999/xlink" x="0px" y="0px" viewBox="0 0 612 792"
	 enable-background="new 0 0 612 792" xml:space="preserve">
<path id="path7" d="M208.7,192.2c-23.9,0-44.1,24.5-44.1,54.5c0,4.3,0.6,8.6,1.2,12.2c3.1-10.4,12.9-18.4,24.5-18.4
	c2.4,0,4.9,0.6,7.3,1.2c1.8-4.3,6.1-7.3,10.4-7.3c6.7,0,11.6,5.5,11.6,11.6c0,4.3-2.4,8-6.1,10.4c1.2,3.1,1.8,6.1,1.8,9.2
	c0,14.1-11.6,25.7-25.7,25.7c-2.4,0-4.9-0.6-7.3-1.2c7.3,6.1,15.9,10.4,25.7,10.4c24.5,0,44.1-24.5,44.1-54.5
	C252.8,216.7,233.2,192.2,208.7,192.2L208.7,192.2z"/>
<path id="path9" d="M403.3,192.2c23.9,0,44.1,24.5,44.1,54.5c0,4.3-0.6,8.6-1.2,12.2c-3.1-10.4-12.9-18.4-24.5-18.4
	c-2.4,0-4.9,0.6-7.3,1.2c-1.8-4.3-6.1-7.3-11-7.3c-6.7,0-11.6,5.5-11.6,11.6c0,4.3,2.4,8,6.1,10.4c-1.2,3.1-1.8,6.1-1.8,9.2
	c0,14.1,11.6,25.7,25.7,25.7c2.4,0,4.9-0.6,7.3-1.2c-7.3,6.1-15.9,10.4-25.7,10.4c-24.5,0-44.1-24.5-44.1-54.5
	S378.8,192.2,403.3,192.2L403.3,192.2z"/>
<path id="path11" d="M306,90C137.1,90,0,227.1,0,396s137.1,306,306,306s306-137.1,306-306S474.9,90,306,90z M403.3,167.7
	c2.4,0,5.5,0,8,0.6l67.3,67.3c2.4,9.8,3.7,19.6,3.7,30.6c0,53.9-35.5,97.9-78.9,97.9s-78.9-44.1-78.9-97.9
	C324.4,211.8,359.9,167.7,403.3,167.7L403.3,167.7z M96.7,441.9c0-28.8,48.3-98.5,55.1-107.7c-13.5-17.7-22-41.6-22-67.9
	c0-5.5,0.6-11,1.2-16.5l80.8-80.8c42.2,2.4,75.9,45.3,75.9,97.9c0,53.9-35.5,97.9-78.9,97.9c-18.4,0-43.5-17.1-56.9-30.6
	c14.7,22,56.9,83.8,56.9,108.3c0,31.2-25.1,56.3-56.3,56.3C121.8,497.6,96.7,472.5,96.7,441.9L96.7,441.9z M454.1,530.6
	c-28.2-24.5-77.7-41-134.6-41s-107.1,16.5-134.6,41h-33c28.2-34.9,92.4-59.4,167.7-59.4s139.5,24.5,167.7,59.4H454.1L454.1,530.6z"
	/>
<path d="M521,251.6L521,251.6"/>
<path fill="#B22424" d="M152.5,333.9c-14.7,22-56.9,83.8-56.9,108.3c0,31.2,25.1,56.3,56.3,56.3h0.2c31.2,0,56.3-25.1,56.3-56.3
	c0-24.5-42.2-86.3-56.9-108.3"/>
</svg>
