<?xml version="1.0" encoding="utf-8"?>
<!-- Generator: Adobe Illustrator 18.0.0, SVG Export Plug-In . SVG Version: 6.00 Build 0)  -->
<!DOCTYPE svg PUBLIC "-//W3C//DTD SVG 1.1//EN" "http://www.w3.org/Graphics/SVG/1.1/DTD/svg11.dtd">
<svg version="1.1" id="Layer_1" xmlns="http://www.w3.org/2000/svg" xmlns:xlink="http://www.w3.org/1999/xlink" x="0px" y="0px"
	 viewBox="0 0 100 100" enable-background="new 0 0 100 100" xml:space="preserve">
<path id="path5" d="M41,17.6c-3.5,0-6.3,3.5-6.3,7.9c0,0.6,0.1,1.2,0.2,1.8c0.5-1.5,1.8-2.6,3.5-2.6c0.4,0,0.7,0.1,1.1,0.2
	c0.3-0.6,0.9-1,1.6-1c0.9,0,1.7,0.8,1.7,1.7c0,0.6-0.4,1.2-0.9,1.5c0.2,0.4,0.3,0.9,0.3,1.4c0,2-1.6,3.7-3.7,3.7
	c-0.4,0-0.7-0.1-1-0.2c1,0.9,2.3,1.5,3.7,1.5c3.5,0,6.3-3.5,6.3-7.9C47.3,21.1,44.5,17.6,41,17.6L41,17.6z"/>
<path id="path7" d="M69.1,17.6c3.5,0,6.3,3.5,6.3,7.9c0,0.6-0.1,1.2-0.2,1.8c-0.5-1.5-1.8-2.6-3.5-2.6c-0.4,0-0.7,0.1-1.1,0.2
	c-0.3-0.6-0.8-1-1.6-1c-0.9,0-1.7,0.8-1.7,1.7c0,0.6,0.4,1.2,0.9,1.5c-0.2,0.4-0.3,0.9-0.3,1.4c0,2,1.6,3.7,3.7,3.7
	c0.4,0,0.7-0.1,1-0.2c-1,0.9-2.3,1.5-3.7,1.5c-3.5,0-6.3-3.5-6.3-7.9C62.8,21.1,65.6,17.6,69.1,17.6L69.1,17.6z"/>
<path id="path11" d="M55.1,0C31.7,0,12.6,18.1,11,41.1c0.3-1.1,0.7-2.1,1.3-3c1.1-1.6,3.2-3.5,7.2-3.5c3.1,0,5.8,1.2,7.8,3.5
	c1.4,1.6,2.3,3.7,2.8,5.8c1.2-0.9,2.2-1.2,2.5-0.9c0.5,0.5-0.4,2.1-2,3.9c0,0,0,0,0,0c13.7,13,35.3,13,49.1,0
	c-1.6-1.8-2.5-3.4-2-3.9c0.5-0.5,2.6,0.6,4.6,2.6c2,2,3.2,4,2.6,4.6c-0.4,0.4-1.9-0.3-3.4-1.6c-7.3,7-16.8,10.5-26.3,10.5
	c-8.6,0-17.2-3-24.3-8.8c0,1.6,0,3-0.1,4.2c8.9,0.1,14.2,4.2,14.2,11.1c0,1.5-0.2,3.2-0.4,4.4c2.1,1.6,4.3,4.4,4.3,8.4
	c0,4-2.6,7-4.3,8.5c0,0,0,0.1,0,0.1c3.4,0.8,6.8,1.3,10.5,1.3c24.4,0,44.2-19.8,44.2-44.2C99.3,19.8,79.5,0,55.1,0L55.1,0z M41,39.6
	c-6.3,0-11.4-6.3-11.4-14.2c0-7.8,5.1-14.2,11.4-14.2c6.3,0,11.4,6.3,11.4,14.2C52.4,33.3,47.3,39.6,41,39.6z M69.1,39.6
	c-6.3,0-11.4-6.3-11.4-14.2c0-7.8,5.1-14.2,11.4-14.2c6.3,0,11.4,6.3,11.4,14.2C80.5,33.3,75.4,39.6,69.1,39.6z"/>
<path id="path15" fill="#8BB23D" stroke="#8BB23D" stroke-miterlimit="10" d="M27.6,57.2c0.4-2.6,2.4-19.8-8.2-19.8
	c-10,0-5.1,15.7-3.7,19.8H27.6L27.6,57.2z"/>
<path id="path17" fill="#8BB23D" d="M17.8,86.8v-2.3h25.3c1.3-1.2,2.9-3.3,2.9-6c0-3.5-2.4-5.6-3.7-6.5H17.8v-2.3h23.9
	c0.2-1.2,0.3-2.7,0.3-4.1c0-3-1.3-4.9-3.2-6.2H12.4C7.9,61.6,0.7,66.6,0.7,77.1c0,15.4,3.4,22.1,9.2,22.3c8.8,0.8,32.5,1.8,32.2-6.3
	c0-2-0.2-4.8-0.4-6.4L17.8,86.8L17.8,86.8z"/>
</svg>
