<?xml version="1.0" encoding="utf-8"?>
<!-- Generator: Adobe Illustrator 18.0.0, SVG Export Plug-In . SVG Version: 6.00 Build 0)  -->
<!DOCTYPE svg PUBLIC "-//W3C//DTD SVG 1.1//EN" "http://www.w3.org/Graphics/SVG/1.1/DTD/svg11.dtd">
<svg version="1.1" id="Layer_7" xmlns="http://www.w3.org/2000/svg" xmlns:xlink="http://www.w3.org/1999/xlink" x="0px" y="0px"
	 viewBox="0 0 100 100" enable-background="new 0 0 100 100" xml:space="preserve">
<path fill="#f68421" d="M65,55c0.1-0.2,0.2-0.5,0.3-0.7c-1-0.3-2.4-0.4-3.8-0.5c-0.7,0.3-1.3,0.7-1.9,1.2c-0.6,0.4-1.1,0.9-1.5,1.3
	C60.4,56.2,62.9,55.9,65,55z"/>
<path fill="#f68421" d="M53.5,56.3c0.1,0,0.2,0,0.2,0c0.5-1,1.4-2.1,2.4-3.1c-1.8-0.2-3.7-0.5-5.5-0.6c0.2-0.3,0.5-0.6,0.9-0.9
	c1.8-1.5,5.1-2.8,7.6-3.1c0-0.4,0-0.8,0.1-1.2c-2.8,0.3-6.4,1.6-8.4,3.4c-0.7,0.6-1.1,1.2-1.4,1.7c-0.2,0-0.4,0-0.5,0
	c-1.3,0-2.4,0.1-3.1,0.4c-0.4,0.1-0.8,0.5-0.9,1.4c-0.1,1.1,0.3,2.7,0.9,3.9C47.7,56.4,50.6,56.3,53.5,56.3z"/>
<path fill="#f68421" d="M13.6,67.6c-4.8,0-8.6,3.9-8.6,8.6s3.9,8.6,8.6,8.6s8.6-3.9,8.6-8.6S18.4,67.6,13.6,67.6z M13.6,81.1
	c-2.7,0-4.9-2.2-4.9-4.9s2.2-4.9,4.9-4.9s4.9,2.2,4.9,4.9C18.5,78.9,16.4,81.1,13.6,81.1z"/>
<path fill="#f68421" d="M80.5,67.6c-4.8,0-8.6,3.9-8.6,8.6s3.9,8.6,8.6,8.6s8.6-3.9,8.6-8.6C89.2,71.4,85.3,67.6,80.5,67.6z
	 M80.5,80.8c-2.5,0-4.6-2.1-4.6-4.6s2.1-4.6,4.6-4.6s4.6,2.1,4.6,4.6C85.1,78.8,83.1,80.8,80.5,80.8z"/>
<path fill="#f68421" d="M95,68.9c-0.3-3.1-2.2-7.1-4-8.4c-0.9-0.6-2.2-1-4.2-1c-2.3,0-5,0.5-6.7,0.8l-0.5,0.1
	c-6.4,1.1-8.5,4.8-10,7.5c-0.9,1.7-1.6,2.9-3,3.1c-3.6,0.6-7.7,0.8-13.1,0.8c-3.9,0-8-0.1-12-0.3c-3.9-0.1-7.9-0.3-11.7-0.3
	c-0.8,0-1.1-1.8-1.3-3.5c3.6-0.3,8-0.3,11.8-0.4c1.3,0,2.4,0,3.5,0c0,0.9,0.1,1.7,0.3,2.2c0.2,0.4,0.5,0.8,0.9,0.9
	c2.9,0.1,5.8,0.2,8.6,0.2c5.3,0,9.4-0.3,12.9-0.8c0.8-0.1,1.3-1,2.2-2.6c1.5-2.8,3.8-6.9,10.8-8.1l0.5-0.1c1.8-0.3,4.5-0.8,6.9-0.8
	c2,0,3.5,0.3,4.6,1c-0.1-1.5-0.6-3.4-1.4-4.6c-0.7-1.1-1.5-1.4-2-1.4c-1.3,0.1-2.6,0.1-3.7,0.1h-1.2c-0.2-1.5-0.8-3.2-1.3-4.8
	c-0.7-2-1.3-4-1.2-5.2c0,0,0.1-0.1,0.9-0.1c0.4,0,0.9,0,1.5,0.1c0.6,0,1.1,0.1,1.6,0.1c0.7,0,1.5-0.1,2-0.6c0.5-0.5,0.7-2,0.3-2.7
	c-0.2-0.3-0.4-0.5-0.8-0.5c-1.7,0-6.4,0.4-7.9,0.5c-0.2-1.3,0.1-3.3,0.4-5.6c0.6-3.8,1.3-8.4,0-12.6c-0.1-0.2-0.1-0.4-0.2-0.6h0.8
	c0,0,0.6-0.5,0.8-1.5c0.1-0.5-0.2-1.3-0.5-1.8c-0.2-0.4-0.6-0.9-1.1-1c-6.3-1.3-17.9-2-31.9-2c-7,0-13.9,0.2-19,0.5
	c-1.2,0.1-2.9,1.9-3.1,3.1c-0.2,1.1,0.3,3.4,1.3,4.5c0.4,0.5,0.8,0.8,1.3,0.8c1.2,0,2.4,0.1,3.7,0.1c-1.3,3.3-2.9,6.7-4.5,10
	c-2.7,5.6-5.2,10.9-5.9,15.3c0,0,0,0,0,0c-3.1,1.5-6.4,4-8.2,6.5c-0.9,1.2-1.4,2.4-1.5,3.5c0.2,0,0.3-0.1,0.5-0.1c0,0,0.1,0,0.1,0
	c0.1,0,0.2,0,0.3-0.1c0,0,0,0,0.1,0c0.1,0,0.1,0,0.2,0c0,0,0,0,0,0c0.1,0,0.1,0,0.1,0c0.5-0.1,1-0.2,1.5-0.2
	c1.6-0.2,3.4-0.3,5.1-0.3c0.5,0,1,0,1.5,0c0.2,0,0.3,0,0.5,0c0.3,0,0.6,0,0.8,0.1c0.2,0,0.4,0,0.6,0.1c0.2,0,0.4,0,0.6,0.1
	c0.2,0,0.4,0.1,0.6,0.1c0.2,0,0.3,0.1,0.5,0.1c0.2,0,0.4,0.1,0.6,0.1c0.1,0,0.3,0.1,0.4,0.1c0.2,0.1,0.4,0.1,0.6,0.2
	c0.1,0,0.2,0.1,0.3,0.1c0.2,0.1,0.4,0.2,0.6,0.2c0.1,0,0.1,0.1,0.2,0.1c0.2,0.1,0.4,0.2,0.6,0.3c-0.1-1.2-0.4-2.4-0.7-3.5
	c-0.1-0.3-0.1-0.6-0.2-0.9c0.8-0.6,1.7-1.4,2.9-2.2c3.8-2.9,9-6.9,11.3-10.2c0.8,0.2,1.6,0.3,2.4,0.3c0.6,0,1.2,0,1.8-0.1
	c0.3,0,0.5,0,0.8,0c0.6,0.7,1,1.3,1.5,1.8c0.1,0.1,0.3,0.2,0.5,0.2c0.1,0,0.3,0,0.4-0.1c0.3-0.2,0.3-0.6,0.1-0.8
	c-2-2.6-5.5-6.7-8.7-9.6c-0.2-0.2-0.6-0.2-0.8,0c-0.2,0.2-0.2,0.6,0,0.8c0.7,0.6,1.4,1.3,2.1,2c0,1.7-0.2,3.6-0.8,4.4
	c-2.1,3.2-7.4,7.3-11.3,10.3c-0.9,0.7-1.7,1.3-2.4,1.9c-0.1-0.9-0.2-1.8,0.1-2.4c0.1-0.2,0.5-0.5,0.8-0.7c0.6-0.4,1.2-0.9,1.3-1.5
	c0.1-0.7-0.6-1.9-1.3-2.1c-0.6-0.1-1.3-0.1-2.1,0.1c0.8-3.1,2.7-7,4.7-11.1c2.1-4.4,4.3-8.8,5.2-12.6c4.5,0.1,9.2,0.3,13.8,0.4
	c7.7,0.2,15,0.4,21.1,0.7c1.2,4.2,0.5,8.2-0.3,11c0.1,0,0.1,0,0.2-0.1c0.2-0.1,0.4-0.2,0.6-0.2c0.1,0,0.2-0.1,0.3-0.1
	c0.2-0.1,0.3-0.1,0.5-0.1c0.1,0,0.2,0,0.2,0c0.2,0,0.5-0.1,0.7-0.1c0.4,0,0.8,0.1,1.2,0.2c0.2-0.6,0.3-1.2,0.4-1.9
	c0-0.1,0-0.2,0-0.2c0.1-0.6,0.2-1.2,0.3-1.7c0,0,0-0.1,0-0.1c0.2-1.3,0.3-2.6,0.3-3.9c0,0,0,0,0,0c-0.2-1.1-0.4-2-0.8-3
	c0.7,0,1.3,0,1.8,0c0.9,8.5-2.6,16.3-5.7,23.4c-1.1,2.5-2.2,4.9-3,7.2c-3.1,1.6-6.7,1.7-10.1,1.6c0.5-1.1,1.6-2.3,3.1-3.4
	c1.1-0.8,2.3-1.5,3.5-1.9c1,0.5,2.4,0.7,3.5,0.7c0.2-0.4,1.7-3.9,2.1-4.7c1.5-3.5,3.2-7.1,4.3-10.9c-0.3-0.1-0.6-0.2-0.9-0.2
	c-3.4,0-8.8,5.6-10.3,8.4c-0.6,1.2-1,4.6,0.1,5.8c0,0,0.1,0.1,0.1,0.1c-1.1,0.5-2.1,1.1-3,1.8c-1.9,1.4-3.1,2.9-3.6,4.3
	c-0.3,0-0.7,0-1,0c-2.8,0-5.8,0.2-7.4,2c-1.1,1.2-2,4.2-2.3,6.8c-1.1,0-2.3,0-3.6,0c-3.8,0.1-8.3,0.1-11.9,0.4
	c-0.3-2.2-0.6-4.2-1.6-5c-1.9-1.5-5.6-1.8-8.4-1.8c-2.2,0-4.6,0.2-6.4,0.5c-1.2,0.2-4.6,1.1-5.6,2.6c-0.4,0.7-0.4,2.3,0,2.9
	c0.2,0.3,0.5,0.4,0.8,0.4c0.5,0,1-0.3,1.6-0.8c1.1-0.8,2.7-1.8,4.8-1.8c3.9,0,8.3,3.8,13,11.4c1.2,2,30.5,2.2,30.8,2.2
	c11,0,11.4-0.6,11.7-1c0.1-0.2,0.3-0.5,0.5-0.8c2-3,7.2-10.8,13.1-10.8c3.2,0,6.3,2.4,9.1,7.2c0.3,0.5,1.2,0.7,1.7,0.7
	c0.4,0,0.8-0.1,1-0.3C94.9,71.6,95.1,70.4,95,68.9z M27.9,36.4c-2.2,4.4-4.2,8.6-4.9,11.9c-0.5,0.2-1.1,0.4-1.6,0.6
	c0.8-4.1,3.2-9,5.7-14.2c1.7-3.5,3.4-7.1,4.7-10.5c0.4,0,0.8,0,1.2,0C32.1,27.9,30,32.2,27.9,36.4z"/>
</svg>
