<?xml version="1.0" encoding="utf-8"?>
<!-- Generator: Adobe Illustrator 18.0.0, SVG Export Plug-In . SVG Version: 6.00 Build 0)  -->
<!DOCTYPE svg PUBLIC "-//W3C//DTD SVG 1.1//EN" "http://www.w3.org/Graphics/SVG/1.1/DTD/svg11.dtd">
<svg version="1.1" id="Isolation_Mode" xmlns="http://www.w3.org/2000/svg" xmlns:xlink="http://www.w3.org/1999/xlink" x="0px"
	 y="0px" viewBox="0 0 100 100" enable-background="new 0 0 100 100" xml:space="preserve">
<g>
	<path fill="#E71212" d="M50,0C22.4,0,0,22.4,0,50s22.4,50,50,50c27.6,0,50-22.4,50-50S77.6,0,50,0z M50,92.6
		C26.5,92.6,7.4,73.5,7.4,50C7.4,26.5,26.5,7.4,50,7.4c23.5,0,42.6,19.1,42.6,42.6C92.6,73.5,73.5,92.6,50,92.6z"/>
	<path fill="#E71212" d="M55.2,50l14.3-14.3c1.4-1.4,1.4-3.8,0-5.2c-1.4-1.4-3.8-1.4-5.2,0L50,44.8L35.7,30.5
		c-1.4-1.4-3.8-1.4-5.2,0s-1.4,3.8,0,5.2L44.8,50L30.5,64.3c-1.4,1.4-1.4,3.8,0,5.2c0.7,0.7,1.7,1.1,2.6,1.1c0.9,0,1.9-0.4,2.6-1.1
		L50,55.2l14.3,14.3c0.7,0.7,1.7,1.1,2.6,1.1c0.9,0,1.9-0.4,2.6-1.1c1.4-1.4,1.4-3.8,0-5.2L55.2,50z"/>
</g>
</svg>
