<?xml version="1.0" encoding="utf-8"?>
<!-- Generator: Adobe Illustrator 18.0.0, SVG Export Plug-In . SVG Version: 6.00 Build 0)  -->
<!DOCTYPE svg PUBLIC "-//W3C//DTD SVG 1.1//EN" "http://www.w3.org/Graphics/SVG/1.1/DTD/svg11.dtd">
<svg version="1.1" id="Layer_1" xmlns="http://www.w3.org/2000/svg" xmlns:xlink="http://www.w3.org/1999/xlink" x="0px" y="0px"
	 viewBox="0 0 307.2 109.2" enable-background="new 0 0 307.2 109.2" xml:space="preserve">
<g>
	<path fill="#33C5EF" d="M0,11.9c0.5-0.1,1-0.1,1.3-0.1s0.6,0,0.8,0c2.3,0,4.2,0.6,5.6,1.7c1.4,1.2,2.1,3.2,2.1,6.1v8.9h17.3V37H9.9
		v29.9c0,6.3,2.5,9.5,7.5,9.5c1.2,0,2.4-0.2,3.5-0.6c1.1-0.4,2.1-0.9,3-1.5c0.9-0.6,1.6-1.1,2.1-1.7c0.5-0.5,0.9-0.9,1-1.2
		c0.9,1.2,1.7,2.3,2.4,3.4c0.7,1.1,1,2.1,1,3.1c0,0.7-0.3,1.5-1,2.3c-0.7,0.8-1.7,1.6-2.9,2.3c-1.2,0.7-2.8,1.3-4.6,1.7
		c-1.8,0.5-3.8,0.7-6,0.7c-4,0-7.2-0.8-9.6-2.3c-2.4-1.5-4.1-3.7-5.1-6.4c-0.5-1.5-0.9-3.1-1-4.8C0.1,69.7,0,67.9,0,66.2V11.9z"/>
	<path fill="#CFDC29" d="M36.5,28.4c0.6-0.1,1.1-0.1,1.5-0.1c0.3,0,0.6,0,0.6,0c1.8,0,3.4,0.4,4.8,1.3c1.4,0.9,2.3,2.4,2.6,4.5
		c1.1-1.6,2.7-3.1,4.9-4.6c2.2-1.4,4.7-2.1,7.5-2.1c0.9,0,1.8,0.1,2.7,0.2c1,0.2,1.9,0.4,2.7,0.8c0.9,0.3,1.5,0.8,2.1,1.4
		c0.5,0.6,0.8,1.4,0.8,2.4c0,1.2-0.3,2.6-0.9,4c-0.6,1.4-1.2,2.6-1.9,3.5c-1-0.9-2.1-1.6-3.2-2.1c-1.2-0.5-2.6-0.8-4.4-0.8
		c-1.3,0-2.6,0.2-3.8,0.6c-1.2,0.4-2.3,1-3.2,1.7c-0.9,0.7-1.7,1.6-2.2,2.5c-0.5,0.9-0.8,1.9-0.8,2.9v38.5h-9.9V28.4z"/>
	<path fill="#C2B59B" d="M73.9,40.8c-0.6-1-1.1-2.1-1.6-3.2c-0.4-1.2-0.6-2.1-0.6-2.8c0-1,0.6-2,1.9-2.8c1.2-0.9,2.8-1.7,4.8-2.4
		c2-0.7,4.2-1.2,6.6-1.6c2.4-0.4,4.8-0.6,7.1-0.6c3.9,0,7.2,0.4,9.9,1.3c2.6,0.9,4.8,2.1,6.4,3.8c1.6,1.7,2.8,3.8,3.4,6.4
		c0.7,2.6,1,5.5,1,8.8v22.9c0,1.9,0.1,3.3,0.2,4.3c0.2,1,0.4,1.8,0.9,2.3c0.4,0.5,1,0.8,1.7,1c0.7,0.2,1.7,0.2,2.8,0.2v4.6
		c-0.7,0.2-1.5,0.4-2.6,0.6c-1,0.2-2,0.2-3.1,0.2c-2.4,0-4.5-0.5-6.3-1.5c-1.8-1-2.8-2.7-3.1-5.2c-1.9,1.9-4.3,3.6-7,4.9
		c-2.7,1.4-6.3,2-10.7,2c-2,0-4-0.2-6.1-0.7c-2.1-0.5-3.9-1.3-5.6-2.6c-1.7-1.2-3-2.9-4.1-5c-1.1-2.1-1.6-4.8-1.6-8
		c0-4,1-7.3,3.1-9.9c2-2.6,4.6-4.6,7.6-6c3-1.5,6.2-2.5,9.7-3c3.4-0.5,6.6-0.9,9.5-0.9c0.7,0,1.5,0,2.4,0c0.9,0,1.7,0,2.4,0.1v-1.7
		c0-3.5-0.8-6.1-2.5-7.9c-1.7-1.8-4.9-2.7-9.6-2.7c-3.5,0-6.4,0.4-8.8,1.3c-2.4,0.9-4.7,2.1-7,3.7H73.9z M103,55.7h-3.4
		c-2.5,0-5,0.2-7.5,0.5c-2.6,0.3-4.9,0.9-7,1.7c-2.1,0.9-3.8,2-5.1,3.6c-1.3,1.5-2,3.5-2,5.9c0,2.3,0.7,4.4,2.1,6.1
		c1.4,1.8,4,2.7,7.8,2.7c2,0,3.9-0.3,5.7-0.9c1.8-0.6,3.4-1.3,4.8-2.1c1.4-0.9,2.5-1.8,3.3-2.8c0.8-1,1.2-2,1.2-2.9V55.7z"/>
	<path fill="#9FCC44" d="M125.3,28.1c0.5-0.1,1-0.1,1.3-0.1c0.3,0,0.6,0,0.8,0c2.3,0,4.2,0.6,5.6,1.7c1.4,1.2,2.1,3.2,2.1,6.1v36.9
		c0,2.2,0.3,3.8,1,4.8c0.7,0.9,2.2,1.4,4.6,1.4v4.2c-0.7,0.2-1.6,0.4-2.8,0.6c-1.2,0.2-2.4,0.2-3.5,0.2c-2.2,0-4-0.3-5.2-1
		c-1.2-0.7-2.1-1.6-2.7-2.8c-0.6-1.2-0.9-2.5-1-3.9c-0.1-1.4-0.2-2.8-0.2-4.2V28.1z"/>
	<path fill="#F58421" d="M148.4,28.4c0.5-0.1,1-0.1,1.3-0.1c0.3,0,0.5,0,0.7,0c1.8,0,3.4,0.4,4.8,1.3c1.4,0.9,2.3,2.4,2.6,4.6
		c1.8-1.8,4.2-3.4,7.2-4.8c3.1-1.4,6.7-2.1,10.8-2.1c5.3,0,9.3,1.2,12.1,3.5c2.8,2.3,4.6,5.2,5.5,8.7c0.4,1.5,0.6,3.3,0.7,5.2
		c0.1,1.9,0.1,3.7,0.1,5.5v32.9h-9.9V50.6c0-1.5,0-2.9-0.1-4.2c0-1.4-0.3-2.6-0.6-3.8c-0.6-2-1.8-3.6-3.4-4.6
		c-1.7-1.1-4.2-1.6-7.5-1.6c-2.2,0-4.3,0.2-6,0.7c-1.8,0.5-3.3,1.1-4.5,1.9c-1.2,0.8-2.2,1.7-2.9,2.7c-0.7,1-1,2-1,3v38.6h-9.9V28.4
		z"/>
	<path fill="#33C5EF" d="M206.2,28.1c0.5-0.1,1-0.1,1.3-0.1c0.3,0,0.6,0,0.8,0c2.3,0,4.2,0.6,5.6,1.7c1.4,1.2,2.1,3.2,2.1,6.1v36.9
		c0,2.2,0.3,3.8,1,4.8c0.7,0.9,2.2,1.4,4.6,1.4v4.2c-0.7,0.2-1.6,0.4-2.8,0.6c-1.2,0.2-2.4,0.2-3.5,0.2c-2.2,0-4-0.3-5.2-1
		c-1.2-0.7-2.1-1.6-2.7-2.8c-0.6-1.2-0.9-2.5-1-3.9c-0.1-1.4-0.2-2.8-0.2-4.2V28.1z"/>
	<path fill="#DA188D" d="M229.2,22.6c0-7.5,1.7-13.1,5.2-16.9c3.5-3.8,8.5-5.7,15.1-5.7c2.4,0,4.6,0.3,6.6,0.8c2,0.5,3.7,1.2,5.2,2
		c1.4,0.8,2.5,1.6,3.3,2.5c0.8,0.9,1.2,1.7,1.2,2.5c0,1.1-0.3,2.1-0.9,3.2c-0.6,1-1.3,2-2,2.8h-1.5c-1.3-1.6-2.9-2.9-4.8-3.9
		c-1.9-1-4-1.5-6.4-1.5c-3.5,0-6.2,0.9-8.1,2.8c-1.9,1.9-2.9,5.2-2.9,9.8v7.5h19.5v8.5h-19.5v46.1h-9.9V22.6z"/>
	<path fill="#FFD53E" d="M279.1,83.1h-3.9l-18.8-53.8c1.7-0.6,3.4-0.9,5.1-0.9c2,0,3.6,0.6,4.9,1.9c1.2,1.2,2.2,2.8,2.8,4.8
		l12.8,39.6L294.6,36c0.2-0.9,0.5-1.7,0.9-2.6c0.4-0.9,0.9-1.7,1.6-2.5c0.7-0.8,1.5-1.4,2.4-1.9s2-0.7,3.4-0.7c1.5,0,3,0.3,4.3,1
		l-21.1,61.4c-0.9,2.5-1.8,4.8-2.8,7.1c-1,2.2-2.2,4.2-3.7,5.9c-1.5,1.7-3.3,3-5.4,4c-2.1,1-4.7,1.5-7.7,1.5c-2.9,0-5.4-0.4-7.4-1.3
		c-2-0.9-3-2.2-3-3.9c0-1.1,0.3-2.2,0.9-3.4c0.6-1.2,1.2-2.2,1.8-3c0.6,0.5,1.6,1.2,2.8,1.9c1.3,0.7,2.9,1.1,4.8,1.1
		c2.7,0,4.9-1,6.6-3c1.7-2,3.1-5.1,4.5-9.3L279.1,83.1z"/>
</g>
<g>
	<g>
		<g>
			<g>
				<g>
					<path fill="#DA188D" d="M130.3,16.8l-5.5,0.1c-0.1-3,2.4-5.5,5.4-5.6c1.4,0,2.6,0.4,3.6,1.3L130.3,16.8z"/>
				</g>
			</g>
			<g>
				<g>
					<path fill="#F58421" d="M130.3,16.8l1,5.4c-3,0.5-5.8-1.5-6.4-4.5c0-0.3-0.1-0.6-0.1-0.9L130.3,16.8z"/>
				</g>
			</g>
			<g>
				<g>
					<path fill="#9FCC44" d="M130.3,16.8l5.2-1.7c0.9,2.9-0.6,6-3.5,6.9c-0.3,0.1-0.5,0.1-0.7,0.2L130.3,16.8z"/>
				</g>
			</g>
			<g>
				<g>
					<path fill="#CFDC29" d="M130.3,16.8l3.5-4.2c0.8,0.7,1.4,1.5,1.7,2.5L130.3,16.8z"/>
				</g>
			</g>
		</g>
	</g>
</g>
<g>
	<g>
		<g>
			<g>
				<g>
					<path fill="#F58421" d="M211.3,16.9l3.4-4.3c2.4,1.9,2.8,5.3,0.9,7.7c-0.8,1.1-1.9,1.7-3.3,2L211.3,16.9z"/>
				</g>
			</g>
			<g>
				<g>
					<path fill="#9CDAF4" d="M211.3,16.9l-4.8-2.7c1.5-2.7,4.8-3.6,7.5-2.1c0.2,0.1,0.5,0.3,0.7,0.5L211.3,16.9z"/>
				</g>
			</g>
			<g>
				<g>
					<path fill="#CFDC29" d="M211.3,16.9l-2,5.1c-2.8-1.1-4.2-4.3-3.2-7.1c0.1-0.3,0.2-0.5,0.3-0.7L211.3,16.9z"/>
				</g>
			</g>
			<g>
				<g>
					<path fill="#CFDC29" d="M211.3,16.9l1,5.4c-1.1,0.2-2,0.1-3-0.3L211.3,16.9z"/>
				</g>
			</g>
		</g>
	</g>
</g>
</svg>
