<?xml version="1.0" encoding="utf-8"?>
<!-- Generator: Adobe Illustrator 18.0.0, SVG Export Plug-In . SVG Version: 6.00 Build 0)  -->
<!DOCTYPE svg PUBLIC "-//W3C//DTD SVG 1.1//EN" "http://www.w3.org/Graphics/SVG/1.1/DTD/svg11.dtd">
<svg version="1.1" id="Your_Icon" xmlns="http://www.w3.org/2000/svg" xmlns:xlink="http://www.w3.org/1999/xlink" x="0px" y="0px"
	 viewBox="0 0 100 100" enable-background="new 0 0 100 100" xml:space="preserve">
<path fill="#9FCC46" d="M97.9,87.6c-1.7-2-3-3.6-4-6.5c-2.1-7.8,0.4-16.7,0.4-16.7l0,0c1.6-4.8,2.5-10,2.5-15.3
	c0-26.7-21.7-48.4-48.4-48.4C21.7,0.7,0,22.4,0,49.1c0,20.7,13,38.3,31.2,45.2l0,0c0,0,0.1,0,0.3,0.1c2.4,0.9,4.9,1.6,7.4,2.1
	c9.9,2.2,28.9,4.8,55.5,0.3C101,95.7,101.2,91.4,97.9,87.6z M64.7,51.4c0,0.1,0,0.2,0,0.3c0,0.1,0,0.2,0,0.4c0,0.1-0.1,0.3-0.1,0.4
	c0,0.1,0,0.2-0.1,0.3c-0.1,0.1-0.1,0.3-0.2,0.4c0,0.1-0.1,0.1-0.1,0.2c-0.1,0.2-0.3,0.4-0.4,0.5l0,0L51.7,65.8c-0.7,0.7-1.6,1-2.5,1
	s-1.8-0.4-2.5-1c-1.4-1.4-1.4-3.6,0-5l5.8-5.8H38.8c-2,0-3.5-1.6-3.5-3.5c0-2,1.6-3.6,3.5-3.6h13.4l-5.4-5.1c-1.4-1.3-1.5-3.6-0.1-5
	c1.3-1.4,3.6-1.5,5-0.1l11.9,11.2c0,0,0,0,0,0c0.1,0.1,0.2,0.2,0.3,0.3c0.1,0.1,0.1,0.1,0.2,0.2c0.1,0.1,0.1,0.3,0.2,0.4
	c0,0.1,0.1,0.1,0.1,0.2c0.1,0.1,0.1,0.3,0.1,0.4c0,0.1,0.1,0.2,0.1,0.3c0,0.1,0,0.2,0,0.3C64.6,51.1,64.7,51.2,64.7,51.4
	C64.7,51.4,64.7,51.4,64.7,51.4C64.7,51.4,64.7,51.4,64.7,51.4z"/>
</svg>
