<svg xmlns="http://www.w3.org/2000/svg" xmlns:xlink="http://www.w3.org/1999/xlink" version="1.1" id="Your_Icon" x="0px" y="0px" width="100px" height="100px" viewBox="0 0 100 100" enable-background="new 0 0 100 100" xml:space="preserve">
<path fill="#f7ffa1" d="M97.766,19.357c0,0,0.063-5.094-3.525-7.884c-2.938-2.282-6.779-2.348-10.043-0.739  c-1.035,0.51-2.024,1.248-3.161,1.52c-1.904,0.454-3.504-1.058-5.142-1.766c-1.645-0.71-3.463-0.969-5.197-1.392  c-1.721-0.42-3.723-0.851-5.514-0.773C45.73,9.174,40.793,27.344,40.793,27.344c-1.07-0.262-2.119-0.606-3.141-1.018  c-1.219-0.491-2.404-1.06-3.557-1.687c-3.883-2.106-7.452-4.849-10.478-8.066c-1.275-1.356-2.407-2.982-4.066-3.9  c-1.826-1.012-4.041-1.423-6.095-1.096c-1.774,0.28-3.097,1.112-4.458,2.248c-0.995,0.831-1.808,1.845-2.46,2.962  C4.28,20.651,3.317,25.64,3.521,30.089c0.071,1.534,0.288,3.064,0.595,4.57c0.053,0.255,0.523,1.415,0.415,1.657  c-4.357,9.843,4.652,21.105,4.652,21.105c0.17,0.214,0.102,1.08,0.142,1.368c0.234,1.626,0.804,3.182,1.497,4.662  c0.169,0.363,1.94,4.014,2.15,3.943c-0.404,0.133-0.895,0.051-1.321,0.033c-1.691-0.066-3.296-0.203-4.968,0.176  c-3.375,0.769-6.276,4.051-6.51,7.543c-0.392,5.826,1.812,8.768,12.535,13.418c10.724,4.65,23.75,4.392,23.75,4.392  c53.017-2.791,55.235-54.665,55.235-54.665s6.658-5.614,8.029-10.576C101.093,22.753,97.766,19.357,97.766,19.357z M93.672,25.889  c-0.262,1.396-1.201,2.498-2.104,3.537c-1.092,1.256-2.187,2.509-3.371,3.677c-0.814,0.806-1.672,1.771-2.674,2.348  c0,0,1.209,29.218-25.168,44.756c-4.242,2.499-9.064,4.518-13.877,5.562c-4.199,0.91-8.553,1.14-12.84,0.963  c-3.797-0.155-7.544-0.744-11.206-1.762c-2.785-0.771-5.544-1.713-8.217-2.812c-2.194-0.901-4.251-2.046-6.275-3.275  c-1.496-0.909-2.21-2.831-1.066-4.29c1.135-1.451,3.145-1.189,4.757-1.019c3.079,0.325,6.523,0.153,9.454-0.925  c2.791-1.029,4.945-1.127,4.945-1.127s-12.584-8.912-10.185-15.963c0.021-0.066-0.541-0.604-0.583-0.654  c-0.521-0.598-1.026-1.209-1.493-1.848c-1.322-1.812-2.48-3.797-3.24-5.912c-0.673-1.874-1.347-4.155-1.039-6.163  c0.108-0.706,0.362-1.375,0.738-1.98c0.092-0.149,1.273-1.478,1.259-1.512c0,0-2.938-7.298-1.322-12.732  c0.417-1.407,0.754-2.85,1.375-4.183c0.541-1.164,1.563-3.001,3.037-3.055c1.078-0.041,2.114,0.678,2.788,1.458  c1.224,1.42,9.353,12.487,28.401,15.865c0,0,0.245-18.558,19.292-20.272c0,0,7.262-0.734,13.939,5.043  c1.232-0.331,2.449-0.761,3.641-1.221c1.454-0.559,2.795-1.371,4.219-1.999c1.19-0.525,2.646-0.928,3.744,0.027  c1.308,1.138,0.848,2.897,0.407,4.335c-0.292,0.958-0.024,1.015,0.743,1.503C92.995,23.054,93.955,24.371,93.672,25.889z"/>
</svg>