<?xml version="1.0" encoding="utf-8"?>
<!-- Generator: Adobe Illustrator 18.0.0, SVG Export Plug-In . SVG Version: 6.00 Build 0)  -->
<!DOCTYPE svg PUBLIC "-//W3C//DTD SVG 1.1//EN" "http://www.w3.org/Graphics/SVG/1.1/DTD/svg11.dtd">
<svg version="1.1" id="Layer_1" xmlns="http://www.w3.org/2000/svg" xmlns:xlink="http://www.w3.org/1999/xlink" x="0px" y="0px"
	 viewBox="0 0 100 100" enable-background="new 0 0 100 100" xml:space="preserve">
<path fill="#4285F4" d="M61.6,65.7c-0.5-0.3-0.1-4.1-0.1-4.1l-4.1-0.5c0-0.2-0.2-3.6-0.2-3.6c3.2-1.1,3.9-7.5,3.9-7.5
	c2.1,1.1,3.4-3.9,3.4-3.9c2.4-7-1.2-6.6-1.2-6.6c1.2-5.3,0.6-13,0.6-13c-1.6-14.2-21.1-11.6-24.2-6.8C30.9,21.2,35,35.6,35,35.6
	l1.2,4.3c-3,2-0.9,4.3-0.8,7.1c0.2,4,2.6,3.2,2.6,3.2c0.2,6.6,4.4,7.5,4.4,7.5c0.6,4.2,0,3.8,0,3.8h-3.7c0.1,1.1-0.2,3.8-0.2,3.8
	c-3.5,1.5-4.2,1.4-7.6,2.9c-6.6,2.9-9.4,4.5-9.4,4.5c-0.3,0.1-0.5,0.2-0.7,0.4c6,7.5,14.8,12.7,24.9,13.9h8.7
	c10.2-1.2,19.1-6.5,25.1-14.1c-2-1.8-5.3-3.4-9.8-4.6C65.2,67.2,61.6,65.7,61.6,65.7z"/>
<path fill="#4285F4" d="M50,0C22.4,0,0,22.4,0,50s22.4,50,50,50s50-22.4,50-50S77.6,0,50,0z M50,92C26.8,92,8,73.2,8,50S26.8,8,50,8
	s42,18.8,42,42S73.2,92,50,92z"/>
</svg>
